<?xml version="1.0" standalone="no"?>
<!DOCTYPE svg PUBLIC "-//W3C//DTD SVG 20010904//EN"
 "http://www.w3.org/TR/2001/REC-SVG-20010904/DTD/svg10.dtd">
<svg version="1.0" xmlns="http://www.w3.org/2000/svg"
 width="1080.000000pt" height="1080.000000pt" viewBox="0 0 1080.000000 1080.000000"
 preserveAspectRatio="xMidYMid meet">

<g transform="translate(0.000000,1080.000000) scale(0.100000,-0.100000)"
fill="#000000" stroke="none">
<path d="M4557 3505 c-128 -35 -253 -134 -314 -250 -114 -217 -72 -491 102
-654 243 -227 614 -162 773 136 109 206 74 468 -86 630 -69 70 -124 104 -216
132 -78 24 -184 27 -259 6z m224 -31 c111 -50 208 -182 255 -344 28 -101 26
-283 -5 -375 -46 -136 -136 -237 -234 -265 -67 -18 -172 -9 -232 20 -66 31
-162 130 -202 205 -73 138 -98 340 -59 470 80 268 269 382 477 289z"/>
<path d="M6252 3512 c-13 -4 14 -7 60 -7 71 -1 91 -5 138 -28 109 -56 195
-165 246 -312 25 -72 28 -94 28 -215 0 -115 -4 -145 -23 -200 -52 -151 -147
-244 -276 -270 -39 -8 -39 -8 -8 -9 18 -1 62 10 98 24 203 76 335 271 335 495
-1 194 -97 372 -250 462 -97 56 -261 84 -348 60z"/>
<path d="M3230 2990 l0 -520 148 0 c81 0 179 5 218 10 141 18 243 75 299 165
27 44 30 56 30 134 0 69 -5 94 -22 126 -46 87 -136 147 -241 161 l-53 7 38 25
c130 85 172 183 124 288 -44 96 -128 124 -373 124 l-168 0 0 -520z m308 500
c175 -38 205 -240 56 -381 -27 -26 -74 -64 -104 -87 -65 -47 -120 -103 -149
-152 l-21 -35 0 333 0 332 85 0 c46 0 106 -5 133 -10z m120 -457 c54 -22 117
-93 142 -159 32 -86 26 -203 -13 -262 -36 -56 -97 -98 -158 -111 -27 -6 -109
-11 -181 -11 l-130 0 4 158 c3 134 7 164 25 204 27 59 92 125 169 170 62 38
76 39 142 11z"/>
<path d="M4000 2990 l0 -520 45 0 45 0 0 520 0 520 -45 0 -45 0 0 -520z"/>
<path d="M5252 2993 l3 -518 45 0 45 0 3 272 2 273 213 3 212 2 -212 3 -213 2
0 235 0 235 248 3 247 2 -298 3 -297 2 2 -517z"/>
<path d="M6822 3472 c22 -35 75 -119 238 -373 l68 -107 -163 -253 c-89 -140
-160 -256 -157 -259 3 -3 6 0 8 5 8 19 313 490 318 490 3 0 41 -55 83 -122 43
-68 116 -181 162 -253 l83 -130 55 0 c40 0 54 3 50 13 -2 6 -83 134 -179 282
-95 149 -177 275 -181 281 -4 7 58 113 139 240 80 126 137 220 126 209 -10
-11 -76 -111 -147 -223 -70 -111 -131 -200 -134 -196 -7 6 -96 146 -203 316
l-73 117 -58 1 -58 0 23 -38z"/>
<path d="M6169 3485 c-143 -52 -275 -212 -308 -373 -55 -265 82 -527 321 -616
65 -24 204 -44 194 -28 -3 5 -25 12 -50 14 -152 17 -303 186 -352 393 -56 240
31 498 200 595 55 32 53 37 -5 15z"/>
</g>
</svg>
